<svg width="20" height="21" fill="none" xmlns="http://www.w3.org/2000/svg"><path d="M10 5.133h8.333" stroke="#718096" stroke-width="1.5" stroke-miterlimit="10" stroke-linecap="round" stroke-linejoin="round"/><path d="M11.85 2.167h4.633c1.484 0 1.85.366 1.85 1.833v3.425c0 1.467-.366 1.833-1.85 1.833H11.85c-1.483 0-1.85-.366-1.85-1.833V4c0-1.467.367-1.833 1.85-1.833Z" stroke="#718096" stroke-width="1.5" stroke-linecap="round" stroke-linejoin="round"/><path d="M1.667 14.717H10" stroke="#718096" stroke-width="1.5" stroke-miterlimit="10" stroke-linecap="round" stroke-linejoin="round"/><path d="M3.517 11.75H8.15c1.483 0 1.85.367 1.85 1.833v3.425c0 1.467-.367 1.834-1.85 1.834H3.517c-1.484 0-1.85-.367-1.85-1.834v-3.425c0-1.466.366-1.833 1.85-1.833ZM18.333 13a5.829 5.829 0 0 1-5.833 5.833l.875-1.458M1.667 8A5.83 5.83 0 0 1 7.5 2.167l-.875 1.458" stroke="#718096" stroke-width="1.5" stroke-linecap="round" stroke-linejoin="round"/></svg>