<svg width="19" height="18" fill="none" xmlns="http://www.w3.org/2000/svg"><path d="M13.763 15.923H5.237c-.323 0-.633-.121-.861-.338a1.124 1.124 0 0 1-.357-.816V4.385h10.962v10.384c0 .306-.129.6-.357.816a1.253 1.253 0 0 1-.861.338ZM7.673 12.461V7.846M11.327 12.461V7.846M1.583 4.385h15.834M11.327 2.077H7.673c-.323 0-.633.121-.861.338-.229.216-.357.51-.357.816v1.154h6.09V3.23c0-.306-.129-.6-.357-.816a1.253 1.253 0 0 0-.861-.338Z" stroke="#718096" stroke-linecap="round" stroke-linejoin="round"/></svg>