<svg width="19" height="18" fill="none" xmlns="http://www.w3.org/2000/svg"><path d="m9.971 10.424-2.612.354.373-2.475 6.718-6.364c.296-.281.7-.439 1.119-.439.42 0 .823.158 1.12.44.296.28.463.662.463 1.06s-.167.78-.463 1.06L9.97 10.425Z" stroke="#718096" stroke-linecap="round" stroke-linejoin="round"/><path d="M14.514 10.5v5c0 .265-.112.52-.31.707a1.086 1.086 0 0 1-.746.293H2.903c-.28 0-.548-.105-.746-.293a.974.974 0 0 1-.31-.707v-10c0-.265.112-.52.31-.707.198-.187.466-.292.746-.292H8.18" stroke="#718096" stroke-linecap="round" stroke-linejoin="round"/></svg>