<svg width="48" height="49" fill="none" xmlns="http://www.w3.org/2000/svg"><rect y=".5" width="48" height="48" rx="24" fill="#FAFAFA"/><path d="M21.667 16.333a2.333 2.333 0 1 1 4.666 0 8.167 8.167 0 0 1 4.667 7v3.5a4.667 4.667 0 0 0 2.333 3.5H14.667a4.665 4.665 0 0 0 2.333-3.5v-3.5a8.166 8.166 0 0 1 4.667-7M20.5 30.333V31.5a3.5 3.5 0 1 0 7 0v-1.167" stroke="#1A202C" stroke-width="1.5" stroke-linecap="round" stroke-linejoin="round"/><circle cx="33" cy="18.5" r="5.75" fill="#FF4747" stroke="#F7FAFC" stroke-width="1.5"/></svg>