<svg width="22" height="23" fill="none" xmlns="http://www.w3.org/2000/svg"><path d="M9.465 4.457c.39-1.61 2.68-1.61 3.07 0a1.58 1.58 0 0 0 2.359.977c1.414-.861 3.034.758 2.173 2.173a1.58 1.58 0 0 0 .976 2.358c1.61.39 1.61 2.68 0 3.07a1.58 1.58 0 0 0-.977 2.359c.861 1.414-.758 3.034-2.173 2.173a1.58 1.58 0 0 0-2.358.976c-.39 1.61-2.68 1.61-3.07 0a1.58 1.58 0 0 0-2.359-.977c-1.414.861-3.034-.758-2.172-2.173a1.58 1.58 0 0 0-.977-2.358c-1.61-.39-1.61-2.68 0-3.07a1.58 1.58 0 0 0 .977-2.359c-.861-1.414.758-3.034 2.173-2.172a1.579 1.579 0 0 0 2.358-.977Z" stroke="#718096" stroke-width="1.5" stroke-linecap="round" stroke-linejoin="round"/><path d="M11 14.25a2.75 2.75 0 1 0 0-5.5 2.75 2.75 0 0 0 0 5.5Z" stroke="#718096" stroke-width="1.5" stroke-linecap="round" stroke-linejoin="round"/></svg>